<?xml version="1.0" encoding="UTF-8" standalone="no"?>
<!DOCTYPE svg PUBLIC "-//W3C//DTD SVG 1.1//EN"
 "http://www.w3.org/Graphics/SVG/1.1/DTD/svg11.dtd">
<!-- Generated by graphviz version 2.26.3 (20100126.1600)
 -->
<!-- Title: controllers_diagram Pages: 1 -->
<svg width="457pt" height="391pt"
 viewBox="0.00 0.00 457.00 391.00" xmlns="http://www.w3.org/2000/svg" xmlns:xlink="http://www.w3.org/1999/xlink">
<g id="graph1" class="graph" transform="scale(1 1) rotate(0) translate(4 387)">
<title>controllers_diagram</title>
<polygon fill="white" stroke="white" points="-4,5 -4,-387 454,-387 454,5 -4,5"/>
<!-- _diagram_info -->
<g id="node1" class="node"><title>_diagram_info</title>
<text text-anchor="start" x="9" y="-78.3" font-family="Times Roman,serif" font-size="13.00">Controllers diagram</text>
<text text-anchor="start" x="9" y="-61.3" font-family="Times Roman,serif" font-size="13.00">Date: Jul 24 2012 &#45; 19:34</text>
<text text-anchor="start" x="9" y="-44.3" font-family="Times Roman,serif" font-size="13.00">Migration version: 20120724135701</text>
<text text-anchor="start" x="9" y="-27.3" font-family="Times Roman,serif" font-size="13.00">Generated by RailRoady 1.0.8</text>
<text text-anchor="start" x="9" y="-10.3" font-family="Times Roman,serif" font-size="13.00">http://railroady.prestonlee.com</text>
</g>
<!-- ApplicationController -->
<g id="node2" class="node"><title>ApplicationController</title>
<polyline fill="none" stroke="black" points="222,-134.5 436,-134.5 "/>
<path fill="none" stroke="black" d="M436,-134.5C442,-134.5 448,-140.5 448,-146.5"/>
<polyline fill="none" stroke="black" points="448,-146.5 448,-224.5 "/>
<path fill="none" stroke="black" d="M448,-224.5C448,-230.5 442,-236.5 436,-236.5"/>
<polyline fill="none" stroke="black" points="436,-236.5 222,-236.5 "/>
<path fill="none" stroke="black" d="M222,-236.5C216,-236.5 210,-230.5 210,-224.5"/>
<polyline fill="none" stroke="black" points="210,-224.5 210,-146.5 "/>
<path fill="none" stroke="black" d="M210,-146.5C210,-140.5 216,-134.5 222,-134.5"/>
<text text-anchor="middle" x="329" y="-219.9" font-family="Times Roman,serif" font-size="14.00">ApplicationController</text>
<polyline fill="none" stroke="black" points="210,-210.5 448,-210.5 "/>
<text text-anchor="start" x="218" y="-193.9" font-family="Times Roman,serif" font-size="14.00">_one_time_conditions_valid_10?</text>
<polyline fill="none" stroke="black" points="210,-184.5 448,-184.5 "/>
<polyline fill="none" stroke="black" points="210,-160.5 448,-160.5 "/>
<text text-anchor="start" x="218" y="-143.9" font-family="Times Roman,serif" font-size="14.00">_layout</text>
</g>
<!-- UsersController -->
<g id="node3" class="node"><title>UsersController</title>
<polyline fill="none" stroke="black" points="51,-153.5 151,-153.5 "/>
<path fill="none" stroke="black" d="M151,-153.5C157,-153.5 163,-159.5 163,-165.5"/>
<polyline fill="none" stroke="black" points="163,-165.5 163,-369.5 "/>
<path fill="none" stroke="black" d="M163,-369.5C163,-375.5 157,-381.5 151,-381.5"/>
<polyline fill="none" stroke="black" points="151,-381.5 51,-381.5 "/>
<path fill="none" stroke="black" d="M51,-381.5C45,-381.5 39,-375.5 39,-369.5"/>
<polyline fill="none" stroke="black" points="39,-369.5 39,-165.5 "/>
<path fill="none" stroke="black" d="M39,-165.5C39,-159.5 45,-153.5 51,-153.5"/>
<text text-anchor="middle" x="101" y="-364.9" font-family="Times Roman,serif" font-size="14.00">UsersController</text>
<polyline fill="none" stroke="black" points="39,-355.5 163,-355.5 "/>
<text text-anchor="start" x="47" y="-338.9" font-family="Times Roman,serif" font-size="14.00">create</text>
<text text-anchor="start" x="47" y="-320.9" font-family="Times Roman,serif" font-size="14.00">destroy</text>
<text text-anchor="start" x="47" y="-302.9" font-family="Times Roman,serif" font-size="14.00">edit</text>
<text text-anchor="start" x="47" y="-284.9" font-family="Times Roman,serif" font-size="14.00">facebook</text>
<text text-anchor="start" x="47" y="-266.9" font-family="Times Roman,serif" font-size="14.00">index</text>
<text text-anchor="start" x="47" y="-248.9" font-family="Times Roman,serif" font-size="14.00">new</text>
<text text-anchor="start" x="47" y="-230.9" font-family="Times Roman,serif" font-size="14.00">show</text>
<text text-anchor="start" x="47" y="-212.9" font-family="Times Roman,serif" font-size="14.00">update</text>
<polyline fill="none" stroke="black" points="39,-203.5 163,-203.5 "/>
<polyline fill="none" stroke="black" points="39,-179.5 163,-179.5 "/>
<text text-anchor="start" x="47" y="-162.9" font-family="Times Roman,serif" font-size="14.00">_layout</text>
</g>
</g>
</svg>
