<?xml version="1.0" encoding="UTF-8" standalone="no"?>
<!DOCTYPE svg PUBLIC "-//W3C//DTD SVG 1.1//EN"
 "http://www.w3.org/Graphics/SVG/1.1/DTD/svg11.dtd">
<!-- Generated by graphviz version 2.26.3 (20100126.1600)
 -->
<!-- Title: models_diagram Pages: 1 -->
<svg width="866pt" height="1052pt"
 viewBox="0.00 0.00 866.00 1052.00" xmlns="http://www.w3.org/2000/svg" xmlns:xlink="http://www.w3.org/1999/xlink">
<g id="graph1" class="graph" transform="scale(1 1) rotate(0) translate(4 1048)">
<title>models_diagram</title>
<polygon fill="white" stroke="white" points="-4,5 -4,-1048 863,-1048 863,5 -4,5"/>
<!-- _diagram_info -->
<g id="node1" class="node"><title>_diagram_info</title>
<text text-anchor="start" x="76" y="-894.8" font-family="Times Roman,serif" font-size="13.00">Models diagram</text>
<text text-anchor="start" x="76" y="-877.8" font-family="Times Roman,serif" font-size="13.00">Date: Jul 24 2012 &#45; 19:34</text>
<text text-anchor="start" x="76" y="-860.8" font-family="Times Roman,serif" font-size="13.00">Migration version: 20120724135701</text>
<text text-anchor="start" x="76" y="-843.8" font-family="Times Roman,serif" font-size="13.00">Generated by RailRoady 1.0.8</text>
<text text-anchor="start" x="76" y="-826.8" font-family="Times Roman,serif" font-size="13.00">http://railroady.prestonlee.com</text>
</g>
<!-- Flow -->
<g id="node2" class="node"><title>Flow</title>
<polyline fill="none" stroke="black" points="121.5,-415 262.5,-415 "/>
<path fill="none" stroke="black" d="M262.5,-415C268.5,-415 274.5,-421 274.5,-427"/>
<polyline fill="none" stroke="black" points="274.5,-427 274.5,-635 "/>
<path fill="none" stroke="black" d="M274.5,-635C274.5,-641 268.5,-647 262.5,-647"/>
<polyline fill="none" stroke="black" points="262.5,-647 121.5,-647 "/>
<path fill="none" stroke="black" d="M121.5,-647C115.5,-647 109.5,-641 109.5,-635"/>
<polyline fill="none" stroke="black" points="109.5,-635 109.5,-427 "/>
<path fill="none" stroke="black" d="M109.5,-427C109.5,-421 115.5,-415 121.5,-415"/>
<text text-anchor="middle" x="192" y="-630.4" font-family="Times Roman,serif" font-size="14.00">Flow</text>
<polyline fill="none" stroke="black" points="109.5,-621 274.5,-621 "/>
<text text-anchor="start" x="117.5" y="-604.4" font-family="Times Roman,serif" font-size="14.00">id :integer</text>
<text text-anchor="start" x="117.5" y="-586.4" font-family="Times Roman,serif" font-size="14.00">nick_name :string</text>
<text text-anchor="start" x="117.5" y="-568.4" font-family="Times Roman,serif" font-size="14.00">start_time :datetime</text>
<text text-anchor="start" x="117.5" y="-550.4" font-family="Times Roman,serif" font-size="14.00">end_time :datetime</text>
<text text-anchor="start" x="117.5" y="-532.4" font-family="Times Roman,serif" font-size="14.00">status :string</text>
<text text-anchor="start" x="117.5" y="-514.4" font-family="Times Roman,serif" font-size="14.00">limit :integer</text>
<text text-anchor="start" x="117.5" y="-496.4" font-family="Times Roman,serif" font-size="14.00">default_flag :boolean</text>
<text text-anchor="start" x="117.5" y="-478.4" font-family="Times Roman,serif" font-size="14.00">forcing_id :string</text>
<text text-anchor="start" x="117.5" y="-460.4" font-family="Times Roman,serif" font-size="14.00">priority :integer</text>
<text text-anchor="start" x="117.5" y="-442.4" font-family="Times Roman,serif" font-size="14.00">created_at :datetime</text>
<text text-anchor="start" x="117.5" y="-424.4" font-family="Times Roman,serif" font-size="14.00">updated_at :datetime</text>
</g>
<!-- Page -->
<g id="node4" class="node"><title>Page</title>
<polyline fill="none" stroke="black" points="11.5,-217 152.5,-217 "/>
<path fill="none" stroke="black" d="M152.5,-217C158.5,-217 164.5,-223 164.5,-229"/>
<polyline fill="none" stroke="black" points="164.5,-229 164.5,-365 "/>
<path fill="none" stroke="black" d="M164.5,-365C164.5,-371 158.5,-377 152.5,-377"/>
<polyline fill="none" stroke="black" points="152.5,-377 11.5,-377 "/>
<path fill="none" stroke="black" d="M11.5,-377C5.5,-377 -0.5,-371 -0.5,-365"/>
<polyline fill="none" stroke="black" points="-0.5,-365 -0.5,-229 "/>
<path fill="none" stroke="black" d="M-0.5,-229C-0.5,-223 5.5,-217 11.5,-217"/>
<text text-anchor="middle" x="82" y="-360.4" font-family="Times Roman,serif" font-size="14.00">Page</text>
<polyline fill="none" stroke="black" points="-0.5,-351 164.5,-351 "/>
<text text-anchor="start" x="7.5" y="-334.4" font-family="Times Roman,serif" font-size="14.00">id :integer</text>
<text text-anchor="start" x="7.5" y="-316.4" font-family="Times Roman,serif" font-size="14.00">type :integer</text>
<text text-anchor="start" x="7.5" y="-298.4" font-family="Times Roman,serif" font-size="14.00">html :text</text>
<text text-anchor="start" x="7.5" y="-280.4" font-family="Times Roman,serif" font-size="14.00">js :text</text>
<text text-anchor="start" x="7.5" y="-262.4" font-family="Times Roman,serif" font-size="14.00">css :text</text>
<text text-anchor="start" x="7.5" y="-244.4" font-family="Times Roman,serif" font-size="14.00">created_at :datetime</text>
<text text-anchor="start" x="7.5" y="-226.4" font-family="Times Roman,serif" font-size="14.00">updated_at :datetime</text>
</g>
<!-- Flow&#45;&gt;Page -->
<g id="edge6" class="edge"><title>Flow&#45;&gt;Page</title>
<path fill="none" stroke="#6820a9" d="M132.977,-405.442C129.937,-398.974 126.913,-392.542 123.943,-386.225"/>
<polygon fill="#6820a9" stroke="#6820a9" points="133.068,-405.636 133.25,-416.6 135.195,-410.161 137.322,-414.686 137.322,-414.686 137.322,-414.686 135.195,-410.161 141.395,-412.771 133.068,-405.636 133.068,-405.636"/>
<polygon fill="#6820a9" stroke="#6820a9" points="123.889,-386.11 123.708,-375.146 121.762,-381.585 119.635,-377.06 119.635,-377.06 119.635,-377.06 121.762,-381.585 115.563,-378.975 123.889,-386.11 123.889,-386.11"/>
</g>
<!-- PageFlow -->
<g id="node7" class="node"><title>PageFlow</title>
<polyline fill="none" stroke="black" points="65.5,-19 208.5,-19 "/>
<path fill="none" stroke="black" d="M208.5,-19C214.5,-19 220.5,-25 220.5,-31"/>
<polyline fill="none" stroke="black" points="220.5,-31 220.5,-149 "/>
<path fill="none" stroke="black" d="M220.5,-149C220.5,-155 214.5,-161 208.5,-161"/>
<polyline fill="none" stroke="black" points="208.5,-161 65.5,-161 "/>
<path fill="none" stroke="black" d="M65.5,-161C59.5,-161 53.5,-155 53.5,-149"/>
<polyline fill="none" stroke="black" points="53.5,-149 53.5,-31 "/>
<path fill="none" stroke="black" d="M53.5,-31C53.5,-25 59.5,-19 65.5,-19"/>
<text text-anchor="middle" x="137" y="-144.4" font-family="Times Roman,serif" font-size="14.00">PageFlow</text>
<polyline fill="none" stroke="black" points="53.5,-135 220.5,-135 "/>
<text text-anchor="start" x="61.5" y="-118.4" font-family="Times Roman,serif" font-size="14.00">id :integer</text>
<text text-anchor="start" x="61.5" y="-100.4" font-family="Times Roman,serif" font-size="14.00">page_id :integer</text>
<text text-anchor="start" x="61.5" y="-82.4" font-family="Times Roman,serif" font-size="14.00">flow_id :integer</text>
<text text-anchor="start" x="61.5" y="-64.4" font-family="Times Roman,serif" font-size="14.00">display_order :integer</text>
<text text-anchor="start" x="61.5" y="-46.4" font-family="Times Roman,serif" font-size="14.00">created_at :datetime</text>
<text text-anchor="start" x="61.5" y="-28.4" font-family="Times Roman,serif" font-size="14.00">updated_at :datetime</text>
</g>
<!-- Flow&#45;&gt;PageFlow -->
<g id="edge2" class="edge"><title>Flow&#45;&gt;PageFlow</title>
<path fill="none" stroke="#f45f7d" d="M190.736,-406.602C188.554,-348.374 183.644,-278.28 173,-216 170.469,-201.191 166.849,-185.639 162.869,-170.711"/>
<ellipse fill="none" stroke="#f45f7d" cx="190.883" cy="-410.74" rx="4" ry="4"/>
<polygon fill="#f45f7d" stroke="#f45f7d" points="162.852,-170.651 164.55,-159.817 161.531,-165.829 160.21,-161.006 160.21,-161.006 160.21,-161.006 161.531,-165.829 155.87,-162.195 162.852,-170.651 162.852,-170.651"/>
</g>
<!-- AycFlow -->
<g id="node9" class="node"><title>AycFlow</title>
<polyline fill="none" stroke="black" points="231.5,-235 372.5,-235 "/>
<path fill="none" stroke="black" d="M372.5,-235C378.5,-235 384.5,-241 384.5,-247"/>
<polyline fill="none" stroke="black" points="384.5,-247 384.5,-347 "/>
<path fill="none" stroke="black" d="M384.5,-347C384.5,-353 378.5,-359 372.5,-359"/>
<polyline fill="none" stroke="black" points="372.5,-359 231.5,-359 "/>
<path fill="none" stroke="black" d="M231.5,-359C225.5,-359 219.5,-353 219.5,-347"/>
<polyline fill="none" stroke="black" points="219.5,-347 219.5,-247 "/>
<path fill="none" stroke="black" d="M219.5,-247C219.5,-241 225.5,-235 231.5,-235"/>
<text text-anchor="middle" x="302" y="-342.4" font-family="Times Roman,serif" font-size="14.00">AycFlow</text>
<polyline fill="none" stroke="black" points="219.5,-333 384.5,-333 "/>
<text text-anchor="start" x="227.5" y="-316.4" font-family="Times Roman,serif" font-size="14.00">id :integer</text>
<text text-anchor="start" x="227.5" y="-298.4" font-family="Times Roman,serif" font-size="14.00">session_id :integer</text>
<text text-anchor="start" x="227.5" y="-280.4" font-family="Times Roman,serif" font-size="14.00">flow_id :integer</text>
<text text-anchor="start" x="227.5" y="-262.4" font-family="Times Roman,serif" font-size="14.00">created_at :datetime</text>
<text text-anchor="start" x="227.5" y="-244.4" font-family="Times Roman,serif" font-size="14.00">updated_at :datetime</text>
</g>
<!-- Flow&#45;&gt;AycFlow -->
<g id="edge4" class="edge"><title>Flow&#45;&gt;AycFlow</title>
<path fill="none" stroke="#e4c80a" d="M250.264,-407.057C256.781,-393.192 263.237,-379.459 269.264,-366.637"/>
<ellipse fill="none" stroke="#e4c80a" cx="248.379" cy="-411.066" rx="4.00002" ry="4.00002"/>
<ellipse fill="#e4c80a" stroke="#e4c80a" cx="271.059" cy="-362.82" rx="4.00002" ry="4.00002"/>
</g>
<!-- AycOfferSet -->
<g id="node3" class="node"><title>AycOfferSet</title>
<polyline fill="none" stroke="black" points="632.5,-415 773.5,-415 "/>
<path fill="none" stroke="black" d="M773.5,-415C779.5,-415 785.5,-421 785.5,-427"/>
<polyline fill="none" stroke="black" points="785.5,-427 785.5,-635 "/>
<path fill="none" stroke="black" d="M785.5,-635C785.5,-641 779.5,-647 773.5,-647"/>
<polyline fill="none" stroke="black" points="773.5,-647 632.5,-647 "/>
<path fill="none" stroke="black" d="M632.5,-647C626.5,-647 620.5,-641 620.5,-635"/>
<polyline fill="none" stroke="black" points="620.5,-635 620.5,-427 "/>
<path fill="none" stroke="black" d="M620.5,-427C620.5,-421 626.5,-415 632.5,-415"/>
<text text-anchor="middle" x="703" y="-630.4" font-family="Times Roman,serif" font-size="14.00">AycOfferSet</text>
<polyline fill="none" stroke="black" points="620.5,-621 785.5,-621 "/>
<text text-anchor="start" x="628.5" y="-604.4" font-family="Times Roman,serif" font-size="14.00">id :integer</text>
<text text-anchor="start" x="628.5" y="-586.4" font-family="Times Roman,serif" font-size="14.00">nick_name :string</text>
<text text-anchor="start" x="628.5" y="-568.4" font-family="Times Roman,serif" font-size="14.00">start_time :datetime</text>
<text text-anchor="start" x="628.5" y="-550.4" font-family="Times Roman,serif" font-size="14.00">end_time :datetime</text>
<text text-anchor="start" x="628.5" y="-532.4" font-family="Times Roman,serif" font-size="14.00">status :string</text>
<text text-anchor="start" x="628.5" y="-514.4" font-family="Times Roman,serif" font-size="14.00">limit :integer</text>
<text text-anchor="start" x="628.5" y="-496.4" font-family="Times Roman,serif" font-size="14.00">default_flag :boolean</text>
<text text-anchor="start" x="628.5" y="-478.4" font-family="Times Roman,serif" font-size="14.00">forcing_id :string</text>
<text text-anchor="start" x="628.5" y="-460.4" font-family="Times Roman,serif" font-size="14.00">priority :integer</text>
<text text-anchor="start" x="628.5" y="-442.4" font-family="Times Roman,serif" font-size="14.00">created_at :datetime</text>
<text text-anchor="start" x="628.5" y="-424.4" font-family="Times Roman,serif" font-size="14.00">updated_at :datetime</text>
</g>
<!-- AycSet -->
<g id="node8" class="node"><title>AycSet</title>
<polyline fill="none" stroke="black" points="414,-235 576,-235 "/>
<path fill="none" stroke="black" d="M576,-235C582,-235 588,-241 588,-247"/>
<polyline fill="none" stroke="black" points="588,-247 588,-347 "/>
<path fill="none" stroke="black" d="M588,-347C588,-353 582,-359 576,-359"/>
<polyline fill="none" stroke="black" points="576,-359 414,-359 "/>
<path fill="none" stroke="black" d="M414,-359C408,-359 402,-353 402,-347"/>
<polyline fill="none" stroke="black" points="402,-347 402,-247 "/>
<path fill="none" stroke="black" d="M402,-247C402,-241 408,-235 414,-235"/>
<text text-anchor="middle" x="495" y="-342.4" font-family="Times Roman,serif" font-size="14.00">AycSet</text>
<polyline fill="none" stroke="black" points="402,-333 588,-333 "/>
<text text-anchor="start" x="410" y="-316.4" font-family="Times Roman,serif" font-size="14.00">id :integer</text>
<text text-anchor="start" x="410" y="-298.4" font-family="Times Roman,serif" font-size="14.00">session_id :integer</text>
<text text-anchor="start" x="410" y="-280.4" font-family="Times Roman,serif" font-size="14.00">ayc_offer_set_id :integer</text>
<text text-anchor="start" x="410" y="-262.4" font-family="Times Roman,serif" font-size="14.00">created_at :datetime</text>
<text text-anchor="start" x="410" y="-244.4" font-family="Times Roman,serif" font-size="14.00">updated_at :datetime</text>
</g>
<!-- AycOfferSet&#45;&gt;AycSet -->
<g id="edge10" class="edge"><title>AycOfferSet&#45;&gt;AycSet</title>
<path fill="none" stroke="#88c1c7" d="M614.939,-431.931C594.968,-409.464 574.194,-386.094 555.658,-365.24"/>
<ellipse fill="none" stroke="#88c1c7" cx="617.837" cy="-435.191" rx="4.00002" ry="4.00002"/>
<ellipse fill="#88c1c7" stroke="#88c1c7" cx="552.894" cy="-362.131" rx="4.00002" ry="4.00002"/>
</g>
<!-- Offer -->
<g id="node10" class="node"><title>Offer</title>
<polyline fill="none" stroke="black" points="618,-217 788,-217 "/>
<path fill="none" stroke="black" d="M788,-217C794,-217 800,-223 800,-229"/>
<polyline fill="none" stroke="black" points="800,-229 800,-365 "/>
<path fill="none" stroke="black" d="M800,-365C800,-371 794,-377 788,-377"/>
<polyline fill="none" stroke="black" points="788,-377 618,-377 "/>
<path fill="none" stroke="black" d="M618,-377C612,-377 606,-371 606,-365"/>
<polyline fill="none" stroke="black" points="606,-365 606,-229 "/>
<path fill="none" stroke="black" d="M606,-229C606,-223 612,-217 618,-217"/>
<text text-anchor="middle" x="703" y="-360.4" font-family="Times Roman,serif" font-size="14.00">Offer</text>
<polyline fill="none" stroke="black" points="606,-351 800,-351 "/>
<text text-anchor="start" x="614" y="-334.4" font-family="Times Roman,serif" font-size="14.00">id :integer</text>
<text text-anchor="start" x="614" y="-316.4" font-family="Times Roman,serif" font-size="14.00">nick_name :string</text>
<text text-anchor="start" x="614" y="-298.4" font-family="Times Roman,serif" font-size="14.00">name_api_server :string</text>
<text text-anchor="start" x="614" y="-280.4" font-family="Times Roman,serif" font-size="14.00">redirectable_flag :boolean</text>
<text text-anchor="start" x="614" y="-262.4" font-family="Times Roman,serif" font-size="14.00">status :string</text>
<text text-anchor="start" x="614" y="-244.4" font-family="Times Roman,serif" font-size="14.00">created_at :datetime</text>
<text text-anchor="start" x="614" y="-226.4" font-family="Times Roman,serif" font-size="14.00">updated_at :datetime</text>
</g>
<!-- AycOfferSet&#45;&gt;Offer -->
<g id="edge12" class="edge"><title>AycOfferSet&#45;&gt;Offer</title>
<path fill="none" stroke="#e1f35a" d="M703,-404.549C703,-398.722 703,-392.926 703,-387.221"/>
<polygon fill="#e1f35a" stroke="#e1f35a" points="703,-404.686 698.5,-414.685 703,-409.686 703,-414.686 703,-414.686 703,-414.686 703,-409.686 707.5,-414.686 703,-404.686 703,-404.686"/>
<polygon fill="#e1f35a" stroke="#e1f35a" points="703,-387.06 707.5,-377.06 703,-382.06 703,-377.06 703,-377.06 703,-377.06 703,-382.06 698.5,-377.06 703,-387.06 703,-387.06"/>
</g>
<!-- OfferSet -->
<g id="node11" class="node"><title>OfferSet</title>
<polyline fill="none" stroke="black" points="684,-1 846,-1 "/>
<path fill="none" stroke="black" d="M846,-1C852,-1 858,-7 858,-13"/>
<polyline fill="none" stroke="black" points="858,-13 858,-167 "/>
<path fill="none" stroke="black" d="M858,-167C858,-173 852,-179 846,-179"/>
<polyline fill="none" stroke="black" points="846,-179 684,-179 "/>
<path fill="none" stroke="black" d="M684,-179C678,-179 672,-173 672,-167"/>
<polyline fill="none" stroke="black" points="672,-167 672,-13 "/>
<path fill="none" stroke="black" d="M672,-13C672,-7 678,-1 684,-1"/>
<text text-anchor="middle" x="765" y="-162.4" font-family="Times Roman,serif" font-size="14.00">OfferSet</text>
<polyline fill="none" stroke="black" points="672,-153 858,-153 "/>
<text text-anchor="start" x="680" y="-136.4" font-family="Times Roman,serif" font-size="14.00">id :integer</text>
<text text-anchor="start" x="680" y="-118.4" font-family="Times Roman,serif" font-size="14.00">ayc_offer_set_id :integer</text>
<text text-anchor="start" x="680" y="-100.4" font-family="Times Roman,serif" font-size="14.00">offer_id :integer</text>
<text text-anchor="start" x="680" y="-82.4" font-family="Times Roman,serif" font-size="14.00">required_flag :boolean</text>
<text text-anchor="start" x="680" y="-64.4" font-family="Times Roman,serif" font-size="14.00">display_order :integer</text>
<text text-anchor="start" x="680" y="-46.4" font-family="Times Roman,serif" font-size="14.00">reg_delay :time</text>
<text text-anchor="start" x="680" y="-28.4" font-family="Times Roman,serif" font-size="14.00">created_at :datetime</text>
<text text-anchor="start" x="680" y="-10.4" font-family="Times Roman,serif" font-size="14.00">updated_at :datetime</text>
</g>
<!-- AycOfferSet&#45;&gt;OfferSet -->
<g id="edge8" class="edge"><title>AycOfferSet&#45;&gt;OfferSet</title>
<path fill="none" stroke="#f161b1" d="M789.794,-421.911C797.605,-407.765 804.321,-392.971 809,-378 830.48,-309.279 821.038,-286.987 809,-216 807.492,-207.109 805.426,-198.008 803.005,-188.968"/>
<ellipse fill="none" stroke="#f161b1" cx="787.594" cy="-425.772" rx="4.00002" ry="4.00002"/>
<polygon fill="#f161b1" stroke="#f161b1" points="802.964,-188.82 804.581,-177.974 801.607,-184.007 800.25,-179.195 800.25,-179.195 800.25,-179.195 801.607,-184.007 795.919,-180.416 802.964,-188.82 802.964,-188.82"/>
</g>
<!-- Page&#45;&gt;PageFlow -->
<g id="edge14" class="edge"><title>Page&#45;&gt;PageFlow</title>
<path fill="none" stroke="#725eb7" d="M105.345,-209.138C108.71,-196.474 112.16,-183.49 115.487,-170.969"/>
<ellipse fill="none" stroke="#725eb7" cx="104.292" cy="-213.103" rx="4.00001" ry="4.00001"/>
<polygon fill="#725eb7" stroke="#725eb7" points="115.556,-170.705 122.474,-162.196 116.84,-165.873 118.124,-161.041 118.124,-161.041 118.124,-161.041 116.84,-165.873 113.775,-159.885 115.556,-170.705 115.556,-170.705"/>
</g>
<!-- User -->
<g id="node5" class="node"><title>User</title>
<polyline fill="none" stroke="black" points="347.5,-685 520.5,-685 "/>
<path fill="none" stroke="black" d="M520.5,-685C526.5,-685 532.5,-691 532.5,-697"/>
<polyline fill="none" stroke="black" points="532.5,-697 532.5,-1031 "/>
<path fill="none" stroke="black" d="M532.5,-1031C532.5,-1037 526.5,-1043 520.5,-1043"/>
<polyline fill="none" stroke="black" points="520.5,-1043 347.5,-1043 "/>
<path fill="none" stroke="black" d="M347.5,-1043C341.5,-1043 335.5,-1037 335.5,-1031"/>
<polyline fill="none" stroke="black" points="335.5,-1031 335.5,-697 "/>
<path fill="none" stroke="black" d="M335.5,-697C335.5,-691 341.5,-685 347.5,-685"/>
<text text-anchor="middle" x="434" y="-1026.4" font-family="Times Roman,serif" font-size="14.00">User</text>
<polyline fill="none" stroke="black" points="335.5,-1017 532.5,-1017 "/>
<text text-anchor="start" x="343.5" y="-1000.4" font-family="Times Roman,serif" font-size="14.00">id :integer</text>
<text text-anchor="start" x="343.5" y="-982.4" font-family="Times Roman,serif" font-size="14.00">uid :string</text>
<text text-anchor="start" x="343.5" y="-964.4" font-family="Times Roman,serif" font-size="14.00">username :string</text>
<text text-anchor="start" x="343.5" y="-946.4" font-family="Times Roman,serif" font-size="14.00">email :string</text>
<text text-anchor="start" x="343.5" y="-928.4" font-family="Times Roman,serif" font-size="14.00">first_name :string</text>
<text text-anchor="start" x="343.5" y="-910.4" font-family="Times Roman,serif" font-size="14.00">password :string</text>
<text text-anchor="start" x="343.5" y="-892.4" font-family="Times Roman,serif" font-size="14.00">password_salt :string</text>
<text text-anchor="start" x="343.5" y="-874.4" font-family="Times Roman,serif" font-size="14.00">age :integer</text>
<text text-anchor="start" x="343.5" y="-856.4" font-family="Times Roman,serif" font-size="14.00">gender :string</text>
<text text-anchor="start" x="343.5" y="-838.4" font-family="Times Roman,serif" font-size="14.00">location :string</text>
<text text-anchor="start" x="343.5" y="-820.4" font-family="Times Roman,serif" font-size="14.00">relationship_status :string</text>
<text text-anchor="start" x="343.5" y="-802.4" font-family="Times Roman,serif" font-size="14.00">interested_in :string</text>
<text text-anchor="start" x="343.5" y="-784.4" font-family="Times Roman,serif" font-size="14.00">birthday :date</text>
<text text-anchor="start" x="343.5" y="-766.4" font-family="Times Roman,serif" font-size="14.00">status :string</text>
<text text-anchor="start" x="343.5" y="-748.4" font-family="Times Roman,serif" font-size="14.00">country :string</text>
<text text-anchor="start" x="343.5" y="-730.4" font-family="Times Roman,serif" font-size="14.00">picture :string</text>
<text text-anchor="start" x="343.5" y="-712.4" font-family="Times Roman,serif" font-size="14.00">created_at :datetime</text>
<text text-anchor="start" x="343.5" y="-694.4" font-family="Times Roman,serif" font-size="14.00">updated_at :datetime</text>
</g>
<!-- Session -->
<g id="node6" class="node"><title>Session</title>
<polyline fill="none" stroke="black" points="363.5,-478 504.5,-478 "/>
<path fill="none" stroke="black" d="M504.5,-478C510.5,-478 516.5,-484 516.5,-490"/>
<polyline fill="none" stroke="black" points="516.5,-490 516.5,-572 "/>
<path fill="none" stroke="black" d="M516.5,-572C516.5,-578 510.5,-584 504.5,-584"/>
<polyline fill="none" stroke="black" points="504.5,-584 363.5,-584 "/>
<path fill="none" stroke="black" d="M363.5,-584C357.5,-584 351.5,-578 351.5,-572"/>
<polyline fill="none" stroke="black" points="351.5,-572 351.5,-490 "/>
<path fill="none" stroke="black" d="M351.5,-490C351.5,-484 357.5,-478 363.5,-478"/>
<text text-anchor="middle" x="434" y="-567.4" font-family="Times Roman,serif" font-size="14.00">Session</text>
<polyline fill="none" stroke="black" points="351.5,-558 516.5,-558 "/>
<text text-anchor="start" x="359.5" y="-541.4" font-family="Times Roman,serif" font-size="14.00">id :integer</text>
<text text-anchor="start" x="359.5" y="-523.4" font-family="Times Roman,serif" font-size="14.00">user_id :integer</text>
<text text-anchor="start" x="359.5" y="-505.4" font-family="Times Roman,serif" font-size="14.00">created_at :datetime</text>
<text text-anchor="start" x="359.5" y="-487.4" font-family="Times Roman,serif" font-size="14.00">updated_at :datetime</text>
</g>
<!-- User&#45;&gt;Session -->
<g id="edge16" class="edge"><title>User&#45;&gt;Session</title>
<path fill="none" stroke="#445c03" d="M434,-676.653C434,-647.114 434,-618.464 434,-594.501"/>
<ellipse fill="none" stroke="#445c03" cx="434" cy="-680.828" rx="4" ry="4"/>
<polygon fill="#445c03" stroke="#445c03" points="434,-594.183 438.5,-584.183 434,-589.183 434,-584.183 434,-584.183 434,-584.183 434,-589.183 429.5,-584.184 434,-594.183 434,-594.183"/>
</g>
<!-- Session&#45;&gt;AycSet -->
<g id="edge18" class="edge"><title>Session&#45;&gt;AycSet</title>
<path fill="none" stroke="#2f5665" d="M449.939,-469.859C458.178,-438.251 468.271,-399.536 476.814,-366.763"/>
<ellipse fill="none" stroke="#2f5665" cx="448.851" cy="-474.031" rx="4.00001" ry="4.00001"/>
<ellipse fill="#2f5665" stroke="#2f5665" cx="477.828" cy="-362.873" rx="4.00001" ry="4.00001"/>
</g>
<!-- Session&#45;&gt;AycFlow -->
<g id="edge20" class="edge"><title>Session&#45;&gt;AycFlow</title>
<path fill="none" stroke="#619430" d="M399.997,-470.721C381.939,-438.71 359.666,-399.226 340.92,-365.994"/>
<ellipse fill="none" stroke="#619430" cx="402.082" cy="-474.418" rx="4.00002" ry="4.00002"/>
<ellipse fill="#619430" stroke="#619430" cx="338.941" cy="-362.486" rx="4.00002" ry="4.00002"/>
</g>
<!-- Offer&#45;&gt;OfferSet -->
<g id="edge22" class="edge"><title>Offer&#45;&gt;OfferSet</title>
<path fill="none" stroke="#dc2bd9" d="M729.338,-209.065C731.334,-202.402 733.355,-195.652 735.37,-188.927"/>
<ellipse fill="none" stroke="#dc2bd9" cx="728.119" cy="-213.137" rx="4.00001" ry="4.00001"/>
<polygon fill="#dc2bd9" stroke="#dc2bd9" points="735.442,-188.686 742.622,-180.398 736.876,-183.896 738.311,-179.107 738.311,-179.107 738.311,-179.107 736.876,-183.896 734,-177.815 735.442,-188.686 735.442,-188.686"/>
</g>
</g>
</svg>
