<?xml version="1.0" encoding="UTF-8" standalone="no"?>
<!DOCTYPE svg PUBLIC "-//W3C//DTD SVG 1.1//EN"
 "http://www.w3.org/Graphics/SVG/1.1/DTD/svg11.dtd">
<!-- Generated by graphviz version 2.26.3 (20100126.1600)
 -->
<!-- Title: models_diagram Pages: 1 -->
<svg width="560pt" height="324pt"
 viewBox="0.00 0.00 560.00 324.00" xmlns="http://www.w3.org/2000/svg" xmlns:xlink="http://www.w3.org/1999/xlink">
<g id="graph1" class="graph" transform="scale(1 1) rotate(0) translate(4 320)">
<title>models_diagram</title>
<polygon fill="white" stroke="white" points="-4,5 -4,-320 557,-320 557,5 -4,5"/>
<!-- _diagram_info -->
<g id="node1" class="node"><title>_diagram_info</title>
<text text-anchor="start" x="8" y="-299.8" font-family="Times Roman,serif" font-size="13.00">Models diagram</text>
<text text-anchor="start" x="8" y="-282.8" font-family="Times Roman,serif" font-size="13.00">Date: Jul 24 2012 &#45; 19:34</text>
<text text-anchor="start" x="8" y="-265.8" font-family="Times Roman,serif" font-size="13.00">Migration version: 20120724135701</text>
<text text-anchor="start" x="8" y="-248.8" font-family="Times Roman,serif" font-size="13.00">Generated by RailRoady 1.0.8</text>
<text text-anchor="start" x="8" y="-231.8" font-family="Times Roman,serif" font-size="13.00">http://railroady.prestonlee.com</text>
</g>
<!-- Flow -->
<g id="node2" class="node"><title>Flow</title>
<ellipse fill="none" stroke="black" cx="172" cy="-167" rx="34.8574" ry="18.3848"/>
<text text-anchor="middle" x="172" y="-163.4" font-family="Times Roman,serif" font-size="14.00">Flow</text>
</g>
<!-- Page -->
<g id="node4" class="node"><title>Page</title>
<ellipse fill="none" stroke="black" cx="109" cy="-93" rx="34.8574" ry="18.3848"/>
<text text-anchor="middle" x="109" y="-89.4" font-family="Times Roman,serif" font-size="14.00">Page</text>
</g>
<!-- Flow&#45;&gt;Page -->
<g id="edge6" class="edge"><title>Flow&#45;&gt;Page</title>
<path fill="none" stroke="#60ee84" d="M150.829,-142.132C144.24,-134.394 136.974,-125.859 130.372,-118.104"/>
<polygon fill="#60ee84" stroke="#60ee84" points="150.906,-142.223 153.962,-152.754 154.147,-146.03 157.388,-149.837 157.388,-149.837 157.388,-149.837 154.147,-146.03 160.815,-146.92 150.906,-142.223 150.906,-142.223"/>
<polygon fill="#60ee84" stroke="#60ee84" points="130.015,-117.684 126.959,-107.153 126.774,-113.877 123.533,-110.07 123.533,-110.07 123.533,-110.07 126.774,-113.877 120.106,-112.987 130.015,-117.684 130.015,-117.684"/>
</g>
<!-- PageFlow -->
<g id="node7" class="node"><title>PageFlow</title>
<ellipse fill="none" stroke="black" cx="141" cy="-19" rx="58.1882" ry="18.3848"/>
<text text-anchor="middle" x="141" y="-15.4" font-family="Times Roman,serif" font-size="14.00">PageFlow</text>
</g>
<!-- Flow&#45;&gt;PageFlow -->
<g id="edge2" class="edge"><title>Flow&#45;&gt;PageFlow</title>
<path fill="none" stroke="#2a48c6" d="M166.668,-140.423C162.91,-121.812 157.726,-96.3714 153,-74 151.176,-65.3663 149.146,-55.9812 147.282,-47.4486"/>
<ellipse fill="none" stroke="#2a48c6" cx="167.497" cy="-144.536" rx="4.00001" ry="4.00001"/>
<polygon fill="#2a48c6" stroke="#2a48c6" points="147.258,-47.3392 149.512,-36.6073 146.187,-42.4553 145.116,-37.5714 145.116,-37.5714 145.116,-37.5714 146.187,-42.4553 140.721,-38.5354 147.258,-47.3392 147.258,-47.3392"/>
</g>
<!-- AycFlow -->
<g id="node9" class="node"><title>AycFlow</title>
<ellipse fill="none" stroke="black" cx="252" cy="-93" rx="51.8276" ry="18.3848"/>
<text text-anchor="middle" x="252" y="-89.4" font-family="Times Roman,serif" font-size="14.00">AycFlow</text>
</g>
<!-- Flow&#45;&gt;AycFlow -->
<g id="edge4" class="edge"><title>Flow&#45;&gt;AycFlow</title>
<path fill="none" stroke="#e15ff3" d="M195.764,-145.018C205.663,-135.862 217.159,-125.228 227.168,-115.969"/>
<ellipse fill="none" stroke="#e15ff3" cx="192.691" cy="-147.861" rx="4.00002" ry="4.00002"/>
<ellipse fill="#e15ff3" stroke="#e15ff3" cx="230.244" cy="-113.124" rx="4.00002" ry="4.00002"/>
</g>
<!-- AycOfferSet -->
<g id="node3" class="node"><title>AycOfferSet</title>
<ellipse fill="none" stroke="black" cx="467" cy="-167" rx="70.0036" ry="18.3848"/>
<text text-anchor="middle" x="467" y="-163.4" font-family="Times Roman,serif" font-size="14.00">AycOfferSet</text>
</g>
<!-- AycSet -->
<g id="node8" class="node"><title>AycSet</title>
<ellipse fill="none" stroke="black" cx="367" cy="-93" rx="44.7575" ry="18.3848"/>
<text text-anchor="middle" x="367" y="-89.4" font-family="Times Roman,serif" font-size="14.00">AycSet</text>
</g>
<!-- AycOfferSet&#45;&gt;AycSet -->
<g id="edge10" class="edge"><title>AycOfferSet&#45;&gt;AycSet</title>
<path fill="none" stroke="#2f1e1b" d="M436.512,-144.439C423.506,-134.814 408.41,-123.643 395.616,-114.176"/>
<ellipse fill="none" stroke="#2f1e1b" cx="440.086" cy="-147.084" rx="4.00002" ry="4.00002"/>
<ellipse fill="#2f1e1b" stroke="#2f1e1b" cx="392.374" cy="-111.777" rx="4.00002" ry="4.00002"/>
</g>
<!-- Offer -->
<g id="node10" class="node"><title>Offer</title>
<ellipse fill="none" stroke="black" cx="467" cy="-93" rx="36.7696" ry="18.3848"/>
<text text-anchor="middle" x="467" y="-89.4" font-family="Times Roman,serif" font-size="14.00">Offer</text>
</g>
<!-- AycOfferSet&#45;&gt;Offer -->
<g id="edge12" class="edge"><title>AycOfferSet&#45;&gt;Offer</title>
<path fill="none" stroke="#467426" d="M467,-138.282C467,-132.836 467,-127.138 467,-121.693"/>
<polygon fill="#467426" stroke="#467426" points="467,-138.327 462.5,-148.327 467,-143.327 467,-148.327 467,-148.327 467,-148.327 467,-143.327 471.5,-148.327 467,-138.327 467,-138.327"/>
<polygon fill="#467426" stroke="#467426" points="467,-121.667 471.5,-111.667 467,-116.667 467,-111.667 467,-111.667 467,-111.667 467,-116.667 462.5,-111.667 467,-121.667 467,-121.667"/>
</g>
<!-- OfferSet -->
<g id="node11" class="node"><title>OfferSet</title>
<ellipse fill="none" stroke="black" cx="499" cy="-19" rx="53.033" ry="18.3848"/>
<text text-anchor="middle" x="499" y="-15.4" font-family="Times Roman,serif" font-size="14.00">OfferSet</text>
</g>
<!-- AycOfferSet&#45;&gt;OfferSet -->
<g id="edge8" class="edge"><title>AycOfferSet&#45;&gt;OfferSet</title>
<path fill="none" stroke="#b2da8c" d="M493.53,-142.72C501.346,-133.899 508.898,-123.299 513,-112 520.652,-90.9247 516.066,-65.7001 510.17,-46.8417"/>
<ellipse fill="none" stroke="#b2da8c" cx="490.568" cy="-145.89" rx="4.00002" ry="4.00002"/>
<polygon fill="#b2da8c" stroke="#b2da8c" points="510.161,-46.8147 511.186,-35.8968 508.544,-42.0832 506.928,-37.3518 506.928,-37.3518 506.928,-37.3518 508.544,-42.0832 502.669,-38.8068 510.161,-46.8147 510.161,-46.8147"/>
</g>
<!-- Page&#45;&gt;PageFlow -->
<g id="edge14" class="edge"><title>Page&#45;&gt;PageFlow</title>
<path fill="none" stroke="#0d8866" d="M120.185,-67.1355C123.039,-60.5337 126.12,-53.4104 129.013,-46.7198"/>
<ellipse fill="none" stroke="#0d8866" cx="118.498" cy="-71.0364" rx="4.00002" ry="4.00002"/>
<polygon fill="#0d8866" stroke="#0d8866" points="129.101,-46.5168 137.2,-39.1243 131.085,-41.9275 133.07,-37.3382 133.07,-37.3382 133.07,-37.3382 131.085,-41.9275 128.94,-35.552 129.101,-46.5168 129.101,-46.5168"/>
</g>
<!-- User -->
<g id="node5" class="node"><title>User</title>
<ellipse fill="none" stroke="black" cx="302" cy="-269" rx="33.9411" ry="18.3848"/>
<text text-anchor="middle" x="302" y="-265.4" font-family="Times Roman,serif" font-size="14.00">User</text>
</g>
<!-- Session -->
<g id="node6" class="node"><title>Session</title>
<ellipse fill="none" stroke="black" cx="302" cy="-167" rx="48.0833" ry="18.3848"/>
<text text-anchor="middle" x="302" y="-163.4" font-family="Times Roman,serif" font-size="14.00">Session</text>
</g>
<!-- User&#45;&gt;Session -->
<g id="edge16" class="edge"><title>User&#45;&gt;Session</title>
<path fill="none" stroke="#5ba071" d="M302,-242.015C302,-227.835 302,-210.445 302,-195.98"/>
<ellipse fill="none" stroke="#5ba071" cx="302" cy="-246.292" rx="4" ry="4"/>
<polygon fill="#5ba071" stroke="#5ba071" points="302,-195.59 306.5,-185.59 302,-190.59 302,-185.59 302,-185.59 302,-185.59 302,-190.59 297.5,-185.59 302,-195.59 302,-195.59"/>
</g>
<!-- Session&#45;&gt;AycSet -->
<g id="edge18" class="edge"><title>Session&#45;&gt;AycSet</title>
<path fill="none" stroke="#6fcfdb" d="M322.737,-143.392C330.304,-134.777 338.855,-125.042 346.41,-116.441"/>
<ellipse fill="none" stroke="#6fcfdb" cx="320.044" cy="-146.458" rx="4.00002" ry="4.00002"/>
<ellipse fill="#6fcfdb" stroke="#6fcfdb" cx="349.067" cy="-113.416" rx="4.00002" ry="4.00002"/>
</g>
<!-- Session&#45;&gt;AycFlow -->
<g id="edge20" class="edge"><title>Session&#45;&gt;AycFlow</title>
<path fill="none" stroke="#8ef8af" d="M285.294,-142.275C280.002,-134.443 274.15,-125.783 268.848,-117.936"/>
<ellipse fill="none" stroke="#8ef8af" cx="287.657" cy="-145.772" rx="4.00002" ry="4.00002"/>
<ellipse fill="#8ef8af" stroke="#8ef8af" cx="266.405" cy="-114.319" rx="4.00002" ry="4.00002"/>
</g>
<!-- Offer&#45;&gt;OfferSet -->
<g id="edge22" class="edge"><title>Offer&#45;&gt;OfferSet</title>
<path fill="none" stroke="#c001c7" d="M478.185,-67.1355C481.039,-60.5337 484.12,-53.4104 487.013,-46.7198"/>
<ellipse fill="none" stroke="#c001c7" cx="476.498" cy="-71.0364" rx="4.00002" ry="4.00002"/>
<polygon fill="#c001c7" stroke="#c001c7" points="487.101,-46.5168 495.2,-39.1243 489.085,-41.9275 491.07,-37.3382 491.07,-37.3382 491.07,-37.3382 489.085,-41.9275 486.94,-35.552 487.101,-46.5168 487.101,-46.5168"/>
</g>
</g>
</svg>
